<?xml version="1.0" encoding="utf-8"?>
<!-- Generator: Adobe Illustrator 24.0.0, SVG Export Plug-In . SVG Version: 6.00 Build 0)  -->
<svg version="1.1" id="Layer_1" xmlns="http://www.w3.org/2000/svg" xmlns:xlink="http://www.w3.org/1999/xlink" x="0px" y="0px"
	 viewBox="0 0 256 256" style="enable-background:new 0 0 256 256;" xml:space="preserve">
<style type="text/css">
	.st0{fill:#382B73;}
	.st1{fill:#291B4A;}
	.st2{fill:#ED9ABC;}
	.st3{fill:#E54890;}
	.st4{fill:#D3D3D3;}
	.st5{fill:#EBE7F2;}
	.st6{fill:#F9B087;}
	.st7{fill:#FF8639;}
	.st8{fill:#65C1D6;}
	.st9{fill:#149CB2;}
</style>
<g>
	<g>
		<g>
			<g>
				<g>
					<circle class="st0" cx="128" cy="128" r="119.4"/>
				</g>
			</g>
		</g>
	</g>
	<g>
		<g>
			<g>
				<g>
					<path class="st1" d="M116.037,122.189c-0.338-1.34-1.697-2.149-3.036-1.812c-2.05,0.517-3.99,1.386-5.741,2.553
						c-1.254-2.461-3.207-4.497-5.676-5.87c-1.207-0.672-2.729-0.238-3.399,0.969s-0.237,2.729,0.97,3.4
						c2.11,1.174,3.637,3.099,4.299,5.421s0.38,4.764-0.794,6.874c-0.671,1.207-0.237,2.729,0.969,3.4
						c0.386,0.214,0.802,0.316,1.214,0.316c0.878,0,1.729-0.463,2.187-1.285c1.391-2.5,1.97-5.3,1.712-8.089
						c1.587-1.354,3.464-2.332,5.485-2.842C115.563,124.887,116.375,123.528,116.037,122.189z"/>
				</g>
			</g>
		</g>
		<g>
			<g>
				<g>
					<path class="st1" d="M79.937,152.577c-0.049,0.48-0.073,0.962-0.073,1.44c0,6.713,4.786,12.565,11.27,13.965
						c2.139,4.104,6.545,6.618,11.222,6.323c2.403,2.68,5.85,4.242,9.491,4.242c6.432,0,12.744-5.744,12.744-11.597V97.481
						c0-1.229-0.151-2.303-0.464-3.282c-1.639-5.149-6.588-8.746-12.035-8.746c-4.582,0-8.68,2.434-10.875,6.332
						c-6.406,0.166-12.007,4.468-13.869,10.523c-5.277,2.4-8.735,7.693-8.735,13.572c0,1.076,0.115,2.144,0.344,3.189
						c-2.069,2.623-3.195,5.847-3.195,9.222c0,2.452,0.593,4.833,1.727,6.971c-1.134,2.139-1.727,4.519-1.727,6.971
						C75.76,146.105,77.269,149.809,79.937,152.577z M90.2,131.229c-0.928-1.023-2.51-1.1-3.531-0.172
						c-1.316,1.194-3.01,1.829-4.757,1.831c-0.744-1.413-1.152-2.977-1.152-4.598c0-2.566,0.979-5.001,2.759-6.857
						c0.637-0.664,0.857-1.624,0.574-2.5c-0.319-0.987-0.481-2.015-0.481-3.055c0-3.751,2.121-7.139,5.395-8.816
						c1.341,1.394,2.073,3.271,1.98,5.244c-0.079,1.671-0.747,3.264-1.882,4.487c-0.938,1.013-0.879,2.594,0.133,3.533
						c0.481,0.446,1.091,0.667,1.699,0.667c0.672,0,1.342-0.269,1.834-0.8c1.936-2.087,3.075-4.804,3.21-7.651
						c0.166-3.513-1.195-6.858-3.68-9.259c1.292-3.522,4.517-6.052,8.275-6.446c0.22,0.923,0.539,1.81,0.959,2.642
						c1.02,2.104,0.21,4.661-1.872,5.766c-1.22,0.647-1.684,2.161-1.036,3.38c0.449,0.846,1.314,1.329,2.21,1.329
						c0.396,0,0.797-0.094,1.17-0.292c2.141-1.136,3.651-2.994,4.411-5.113c0.355,0.198,0.718,0.386,1.097,0.551
						c0.324,0.141,0.662,0.208,0.995,0.208c0.965,0,1.885-0.563,2.294-1.504c0.55-1.266-0.03-2.739-1.297-3.289
						c-2.35-1.021-3.917-3.179-4.207-5.697c1.225-2.66,3.831-4.366,6.791-4.366c3.295,0,6.285,2.164,7.271,5.263
						c0.153,0.481,0.228,1.059,0.228,1.765v37.729c-0.2,1.488-1.046,3.031-2.34,4.25c-1.933,1.819-4.69,2.409-7.201,1.537
						c-1.309-0.455-2.729,0.237-3.182,1.542c-0.453,1.304,0.237,2.729,1.541,3.182c1.307,0.454,2.652,0.674,3.986,0.674
						c2.572,0,5.092-0.831,7.195-2.395v22.951c0,3.083-4.125,6.597-7.744,6.597c-2.532,0-4.91-1.244-6.36-3.328
						c-0.473-0.68-1.244-1.072-2.052-1.072c-0.162,0-0.327,0.016-0.49,0.049c-0.441,0.088-0.893,0.133-1.343,0.133
						c-2.533,0-4.818-1.41-5.992-3.62c0.232-0.912,0.64-1.78,1.214-2.538c0.671-0.885,1.536-1.595,2.518-2.079
						c0.955,1.335,2.376,3.043,3.874,3.86c3.887,2.121,8.695,1.773,12.248-0.882c1.105-0.827,1.332-2.393,0.505-3.499
						s-2.393-1.332-3.499-0.505c-1.992,1.489-4.685,1.682-6.859,0.497c-0.774-0.422-2.225-2.274-3.093-3.738
						c-0.551-0.934-1.639-1.404-2.702-1.167c-2.776,0.626-5.254,2.222-6.976,4.494c-0.629,0.831-1.143,1.74-1.538,2.697
						c-3.572-1.159-6.166-4.442-6.409-8.248c0.181,0.008,0.363,0.021,0.543,0.021c3.609,0,7.073-1.634,9.377-4.44
						c1.201,0.748,2.562,1.225,4.011,1.37c0.085,0.008,0.169,0.012,0.252,0.012c1.269,0,2.355-0.962,2.484-2.251
						c0.138-1.374-0.864-2.599-2.238-2.737c-1.163-0.116-2.21-0.678-2.95-1.582c-0.739-0.904-1.083-2.042-0.967-3.204
						c0.138-1.374-0.864-2.599-2.238-2.737c-1.379-0.139-2.6,0.865-2.736,2.239c-0.18,1.794,0.159,3.558,0.951,5.13
						c-1.612,2.445-4.605,3.674-7.481,3.025c-1.994-1.872-3.139-4.476-3.139-7.214c0-1.52,0.346-2.995,1.002-4.339
						c0.051,0.001,0.101,0.006,0.152,0.006c2.984,0,5.868-1.101,8.114-3.138C91.051,133.833,91.128,132.252,90.2,131.229z"/>
				</g>
			</g>
		</g>
		<g>
			<g>
				<g>
					<path class="st1" d="M156.846,121.429c1.207-0.671,1.641-2.193,0.97-3.4s-2.192-1.642-3.399-0.969
						c-2.469,1.373-4.422,3.408-5.675,5.87c-1.751-1.167-3.691-2.035-5.742-2.553c-1.338-0.334-2.697,0.473-3.036,1.812
						c-0.338,1.339,0.474,2.698,1.812,3.036c2.021,0.51,3.898,1.488,5.485,2.842c-0.258,2.789,0.321,5.588,1.712,8.089
						c0.457,0.822,1.309,1.285,2.187,1.285c0.411,0,0.828-0.102,1.214-0.316c1.206-0.671,1.64-2.193,0.969-3.4
						c-1.174-2.11-1.456-4.552-0.794-6.874S154.735,122.603,156.846,121.429z"/>
				</g>
			</g>
		</g>
		<g>
			<g>
				<g>
					<path class="st1" d="M168.653,102.308c-1.862-6.055-7.463-10.357-13.869-10.523c-2.195-3.897-6.293-6.332-10.875-6.332
						c-5.447,0-10.396,3.596-12.035,8.745c-0.313,0.979-0.464,2.053-0.464,3.283v69.469c0,5.853,6.313,11.597,12.744,11.597
						c3.642,0,7.088-1.562,9.491-4.242c4.678,0.29,9.084-2.22,11.222-6.323c6.483-1.4,11.27-7.252,11.27-13.965
						c0-0.478-0.024-0.959-0.073-1.44c2.668-2.768,4.177-6.472,4.177-10.345c0-2.452-0.593-4.833-1.727-6.971
						c1.134-2.138,1.727-4.519,1.727-6.971c0-3.375-1.126-6.599-3.195-9.222c0.229-1.045,0.344-2.113,0.344-3.189
						C177.389,110,173.931,104.708,168.653,102.308z M165.972,134.761c2.246,2.038,5.13,3.138,8.114,3.138
						c0.05,0,0.101-0.005,0.152-0.006c0.656,1.344,1.002,2.82,1.002,4.339c0,2.739-1.146,5.343-3.139,7.214
						c-2.875,0.649-5.869-0.58-7.481-3.025c0.792-1.572,1.131-3.336,0.951-5.13c-0.137-1.373-1.343-2.372-2.736-2.239
						c-1.374,0.138-2.376,1.363-2.238,2.737c0.116,1.162-0.228,2.3-0.967,3.204c-0.74,0.904-1.787,1.466-2.95,1.582
						c-1.374,0.138-2.376,1.363-2.238,2.737c0.129,1.289,1.216,2.251,2.484,2.251c0.083,0,0.167-0.004,0.252-0.012
						c1.449-0.145,2.81-0.622,4.011-1.37c2.304,2.806,5.768,4.44,9.378,4.44c0.181,0,0.362-0.012,0.543-0.021
						c-0.244,3.806-2.837,7.089-6.409,8.248c-0.395-0.957-0.909-1.867-1.538-2.698c-1.722-2.271-4.199-3.867-6.976-4.494
						c-1.066-0.238-2.151,0.233-2.702,1.167c-0.75,1.269-2.241,3.274-3.093,3.738c-2.175,1.187-4.868,0.991-6.859-0.497
						c-1.106-0.827-2.674-0.601-3.499,0.505c-0.827,1.106-0.601,2.672,0.505,3.499c3.552,2.656,8.359,3.003,12.248,0.882
						c1.498-0.817,2.919-2.525,3.874-3.86c0.981,0.484,1.847,1.194,2.518,2.079c0.574,0.758,0.982,1.626,1.214,2.538
						c-1.174,2.21-3.459,3.62-5.992,3.62c-0.45,0-0.901-0.045-1.343-0.133c-0.978-0.2-1.975,0.207-2.542,1.023
						c-1.45,2.084-3.828,3.328-6.36,3.328c-3.619,0-7.744-3.514-7.744-6.597V144c2.103,1.564,4.624,2.395,7.195,2.395
						c1.333,0,2.68-0.221,3.986-0.674c1.304-0.453,1.994-1.877,1.541-3.182c-0.452-1.305-1.874-1.997-3.182-1.542
						c-2.508,0.871-5.269,0.282-7.201-1.537c-1.294-1.219-2.14-2.763-2.34-4.25V97.481c0-0.707,0.074-1.284,0.228-1.766
						c0.986-3.098,3.977-5.262,7.271-5.262c2.96,0,5.565,1.706,6.791,4.366c-0.29,2.518-1.857,4.676-4.207,5.697
						c-1.267,0.55-1.847,2.023-1.297,3.289c0.409,0.942,1.329,1.504,2.294,1.504c0.333,0,0.671-0.066,0.995-0.208
						c0.379-0.165,0.742-0.353,1.097-0.551c0.761,2.119,2.271,3.977,4.411,5.113c0.373,0.198,0.774,0.292,1.17,0.292
						c0.896,0,1.761-0.482,2.21-1.329c0.647-1.219,0.184-2.733-1.036-3.38c-2.082-1.104-2.892-3.662-1.872-5.766
						c0.42-0.832,0.739-1.719,0.959-2.642c3.758,0.394,6.983,2.923,8.275,6.446c-2.485,2.401-3.846,5.746-3.68,9.259
						c0.135,2.847,1.274,5.564,3.21,7.651c0.492,0.531,1.162,0.8,1.834,0.8c0.608,0,1.218-0.221,1.699-0.667
						c1.012-0.939,1.071-2.521,0.133-3.533c-1.135-1.223-1.803-2.816-1.882-4.487c-0.093-1.972,0.64-3.85,1.98-5.244
						c3.273,1.677,5.395,5.064,5.395,8.816c0,1.04-0.162,2.068-0.481,3.055c-0.283,0.875-0.063,1.835,0.574,2.5
						c1.779,1.856,2.759,4.291,2.759,6.857c0,1.621-0.408,3.185-1.152,4.599c-1.746-0.001-3.441-0.637-4.757-1.832
						c-1.021-0.928-2.604-0.85-3.531,0.172C164.872,132.252,164.949,133.833,165.972,134.761z"/>
				</g>
			</g>
		</g>
		<g>
			<g>
				<g>
					<path class="st1" d="M34.88,164.005c-1.381,0-2.5,1.119-2.5,2.5s1.119,2.5,2.5,2.5h17.694v21.974c0,1.381,1.119,2.5,2.5,2.5
						h35.92v17.694c0,1.381,1.119,2.5,2.5,2.5s2.5-1.119,2.5-2.5v-17.694H125.5v17.694c0,1.381,1.119,2.5,2.5,2.5s2.5-1.119,2.5-2.5
						v-17.694h29.506v17.694c0,1.381,1.119,2.5,2.5,2.5s2.5-1.119,2.5-2.5v-17.694h35.92c1.381,0,2.5-1.119,2.5-2.5v-21.974h17.694
						c1.381,0,2.5-1.119,2.5-2.5s-1.119-2.5-2.5-2.5h-17.694V134.5h17.694c1.381,0,2.5-1.119,2.5-2.5s-1.119-2.5-2.5-2.5h-17.694
						V99.995h17.694c1.381,0,2.5-1.119,2.5-2.5s-1.119-2.5-2.5-2.5h-17.694V73.021c0-1.381-1.119-2.5-2.5-2.5h-35.92V52.827
						c0-1.381-1.119-2.5-2.5-2.5s-2.5,1.119-2.5,2.5v17.694H130.5V52.827c0-1.381-1.119-2.5-2.5-2.5s-2.5,1.119-2.5,2.5v17.694
						H95.994V52.827c0-1.381-1.119-2.5-2.5-2.5s-2.5,1.119-2.5,2.5v17.694h-35.92c-1.381,0-2.5,1.119-2.5,2.5v21.974H34.88
						c-1.381,0-2.5,1.119-2.5,2.5s1.119,2.5,2.5,2.5h17.694V129.5H34.88c-1.381,0-2.5,1.119-2.5,2.5s1.119,2.5,2.5,2.5h17.694
						v29.505H34.88z M57.574,75.521h140.852v112.958H57.574V75.521z"/>
				</g>
			</g>
		</g>
	</g>
	<g>
		<g>
			<g>
				<g>
					<g>
						<g>
							<path class="st8" d="M108.51,101.309c0.965,0,1.885-0.563,2.294-1.504c0.55-1.266-0.03-2.739-1.297-3.289
								c-2.497-1.085-4.13-3.449-4.263-6.17c-0.067-1.379-1.25-2.451-2.618-2.375c-1.38,0.067-2.443,1.239-2.376,2.619
								c0.226,4.636,3.009,8.665,7.265,10.513C107.839,101.243,108.177,101.309,108.51,101.309z"/>
						</g>
					</g>
				</g>
				<g>
					<g>
						<g>
							<path class="st8" d="M99.662,101.247c-1.22,0.647-1.684,2.161-1.036,3.38c0.449,0.846,1.314,1.329,2.21,1.329
								c0.396,0,0.797-0.094,1.17-0.292c4.564-2.423,6.308-8.108,3.885-12.673c-0.648-1.221-2.163-1.684-3.38-1.037
								c-1.22,0.647-1.684,2.161-1.036,3.38C102.604,97.464,101.792,100.117,99.662,101.247z"/>
						</g>
					</g>
				</g>
				<g>
					<g>
						<g>
							<path class="st8" d="M89.237,116.328c0.481,0.446,1.091,0.667,1.699,0.667c0.672,0,1.342-0.269,1.834-0.8
								c1.936-2.087,3.075-4.804,3.21-7.651c0.194-4.105-1.684-7.991-5.021-10.395c-1.12-0.807-2.683-0.552-3.489,0.568
								c-0.808,1.121-0.553,2.683,0.567,3.49c1.961,1.412,3.063,3.692,2.949,6.101c-0.079,1.671-0.747,3.264-1.882,4.487
								C88.166,113.807,88.226,115.389,89.237,116.328z"/>
						</g>
					</g>
				</g>
				<g>
					<g>
						<g>
							<path class="st8" d="M85.434,150.621c4.59,0,8.955-2.635,10.982-6.974c0.585-1.251,0.045-2.739-1.206-3.324
								c-1.253-0.584-2.738-0.043-3.323,1.207c-1.5,3.209-5.177,4.828-8.545,3.77c-1.318-0.413-2.721,0.319-3.134,1.636
								c-0.414,1.317,0.318,2.721,1.636,3.134C83.031,150.443,84.24,150.621,85.434,150.621z"/>
						</g>
					</g>
				</g>
				<g>
					<g>
						<g>
							<path class="st8" d="M112.395,142.395c3.03,0,5.996-1.142,8.283-3.295c2.2-2.072,3.583-4.706,3.896-7.416
								c0.158-1.372-0.825-2.612-2.197-2.77c-1.374-0.159-2.612,0.826-2.77,2.197c-0.175,1.518-1.034,3.102-2.356,4.348
								c-1.933,1.819-4.69,2.409-7.201,1.537c-1.309-0.455-2.729,0.237-3.182,1.542c-0.453,1.304,0.237,2.729,1.541,3.182
								C109.715,142.174,111.061,142.395,112.395,142.395z"/>
						</g>
					</g>
				</g>
				<g>
					<g>
						<g>
							<path class="st8" d="M92.99,164.53c1.218,0,2.284-0.891,2.47-2.131c0.174-1.164,0.645-2.28,1.362-3.228
								c0.671-0.884,1.536-1.594,2.518-2.079c0.955,1.335,2.376,3.043,3.874,3.86c3.887,2.12,8.695,1.773,12.248-0.882
								c1.105-0.827,1.332-2.393,0.505-3.499c-0.827-1.105-2.393-1.333-3.499-0.505c-1.992,1.489-4.685,1.683-6.859,0.497
								c-0.774-0.422-2.225-2.274-3.093-3.738c-0.551-0.934-1.639-1.405-2.702-1.167c-2.776,0.626-5.254,2.222-6.977,4.494
								c-1.222,1.614-2.025,3.519-2.322,5.509c-0.204,1.366,0.738,2.638,2.104,2.842C92.743,164.521,92.867,164.53,92.99,164.53z"/>
						</g>
					</g>
				</g>
				<g>
					<g>
						<g>
							<path class="st8" d="M81.914,133.899c2.984,0,5.868-1.101,8.114-3.138c1.022-0.928,1.1-2.509,0.172-3.531
								c-0.928-1.023-2.51-1.1-3.531-0.172c-1.579,1.433-3.7,2.075-5.809,1.764c-1.374-0.208-2.637,0.743-2.839,2.108
								c-0.201,1.366,0.743,2.636,2.108,2.838C80.726,133.855,81.322,133.899,81.914,133.899z"/>
						</g>
					</g>
				</g>
				<g>
					<g>
						<g>
							<g>
								<path class="st8" d="M107.98,124.762c1.732-1.72,3.892-2.943,6.245-3.537c1.338-0.338,2.149-1.697,1.812-3.036
									c-0.338-1.339-1.697-2.151-3.036-1.812c-3.222,0.813-6.176,2.486-8.544,4.837c-0.979,0.973-0.985,2.556-0.013,3.535
									c0.489,0.493,1.132,0.739,1.774,0.739C106.855,125.488,107.492,125.246,107.98,124.762z"/>
							</g>
						</g>
					</g>
					<g>
						<g>
							<g>
								<path class="st8" d="M103.628,133.125c0.386,0.214,0.802,0.316,1.214,0.316c0.878,0,1.729-0.463,2.187-1.285
									c1.823-3.277,2.262-7.068,1.233-10.675s-3.399-6.597-6.678-8.42c-1.207-0.671-2.729-0.237-3.399,0.969
									c-0.671,1.207-0.237,2.729,0.97,3.4c2.11,1.174,3.637,3.099,4.299,5.421s0.38,4.764-0.794,6.874
									C101.988,130.931,102.422,132.454,103.628,133.125z"/>
							</g>
						</g>
					</g>
				</g>
				<g>
					<g>
						<g>
							<path class="st8" d="M93.165,135.053c-1.379-0.138-2.6,0.865-2.736,2.239c-0.25,2.491,0.486,4.931,2.072,6.868
								c1.585,1.938,3.83,3.142,6.321,3.392c0.085,0.008,0.169,0.012,0.252,0.012c1.269,0,2.355-0.962,2.484-2.251
								c0.138-1.374-0.864-2.599-2.238-2.737c-1.163-0.116-2.21-0.678-2.95-1.582c-0.739-0.904-1.083-2.042-0.967-3.204
								C95.541,136.416,94.539,135.19,93.165,135.053z"/>
						</g>
					</g>
				</g>
				<g>
					<g>
						<g>
							<path class="st8" d="M79.937,148.577c-0.049,0.48-0.073,0.962-0.073,1.44c0,6.713,4.786,12.565,11.27,13.965
								c2.139,4.104,6.545,6.622,11.222,6.323c2.403,2.68,5.85,4.242,9.491,4.242c6.432,0,12.744-5.744,12.744-11.597V93.481
								c0-1.229-0.151-2.303-0.464-3.282c-1.639-5.149-6.588-8.746-12.035-8.746c-4.582,0-8.68,2.434-10.875,6.332
								c-6.406,0.166-12.007,4.468-13.869,10.523c-5.277,2.4-8.735,7.693-8.735,13.572c0,1.076,0.115,2.144,0.344,3.189
								c-2.069,2.623-3.195,5.847-3.195,9.222c0,2.452,0.593,4.833,1.727,6.971c-1.134,2.139-1.727,4.519-1.727,6.971
								C75.76,142.105,77.269,145.809,79.937,148.577z M82.469,129.855c-1.118-1.643-1.709-3.567-1.709-5.564
								c0-2.566,0.979-5.001,2.759-6.857c0.637-0.664,0.857-1.624,0.574-2.5c-0.319-0.987-0.481-2.015-0.481-3.055
								c0-4.216,2.676-7.979,6.659-9.362c0.831-0.289,1.449-0.992,1.628-1.854c0.947-4.568,5.028-7.884,9.702-7.884
								c0.315,0,0.626,0.017,0.935,0.046c1.104,0.106,2.159-0.542,2.563-1.584c1.13-2.909,3.874-4.788,6.992-4.788
								c3.295,0,6.285,2.164,7.271,5.263c0.153,0.481,0.228,1.059,0.228,1.765v69.469c0,3.083-4.125,6.597-7.744,6.597
								c-2.532,0-4.91-1.244-6.36-3.328c-0.473-0.68-1.244-1.072-2.052-1.072c-0.162,0-0.327,0.016-0.49,0.049
								c-0.441,0.088-0.893,0.133-1.343,0.133c-2.726,0-5.181-1.619-6.255-4.125c-0.167-0.39-0.431-0.73-0.767-0.99l-0.668-0.519
								c-0.337-0.262-0.736-0.433-1.159-0.497c-4.497-0.677-7.889-4.624-7.889-9.181c0-0.583,0.057-1.176,0.169-1.761
								c0.083-0.431,0.051-0.877-0.094-1.292l-0.071-0.207c-0.143-0.412-0.39-0.779-0.717-1.066
								c-2.155-1.884-3.391-4.603-3.391-7.459c0-1.997,0.591-3.921,1.709-5.565C83.046,131.818,83.046,130.704,82.469,129.855z"/>
						</g>
					</g>
				</g>
			</g>
			<g>
				<g>
					<g>
						<g>
							<path class="st8" d="M147.49,101.309c0.333,0,0.671-0.066,0.995-0.208c4.256-1.849,7.039-5.877,7.265-10.513
								c0.067-1.379-0.996-2.552-2.376-2.619c-1.363-0.072-2.551,0.997-2.618,2.375c-0.133,2.721-1.766,5.085-4.263,6.17
								c-1.267,0.55-1.847,2.023-1.297,3.289C145.605,100.747,146.525,101.309,147.49,101.309z"/>
						</g>
					</g>
				</g>
				<g>
					<g>
						<g>
							<path class="st8" d="M153.489,91.954c-1.219-0.648-2.734-0.184-3.38,1.037c-2.423,4.565-0.68,10.25,3.885,12.673
								c0.373,0.198,0.774,0.292,1.17,0.292c0.896,0,1.761-0.482,2.21-1.329c0.647-1.219,0.184-2.733-1.036-3.38
								c-2.13-1.13-2.942-3.783-1.813-5.913C155.173,94.114,154.709,92.601,153.489,91.954z"/>
						</g>
					</g>
				</g>
				<g>
					<g>
						<g>
							<path class="st8" d="M167.963,102.206c1.12-0.807,1.375-2.369,0.567-3.49c-0.808-1.121-2.368-1.375-3.489-0.568
								c-3.338,2.404-5.216,6.29-5.021,10.395c0.135,2.847,1.274,5.564,3.21,7.651c0.492,0.531,1.162,0.8,1.834,0.8
								c0.608,0,1.218-0.221,1.699-0.667c1.012-0.939,1.071-2.521,0.133-3.533c-1.135-1.223-1.803-2.816-1.882-4.487
								C164.9,105.898,166.002,103.618,167.963,102.206z"/>
						</g>
					</g>
				</g>
				<g>
					<g>
						<g>
							<path class="st8" d="M170.566,150.621c1.193,0,2.402-0.178,3.59-0.551c1.317-0.414,2.05-1.817,1.636-3.134
								c-0.413-1.317-1.817-2.05-3.134-1.636c-3.367,1.058-7.045-0.561-8.545-3.77c-0.584-1.25-2.068-1.79-3.323-1.207
								c-1.251,0.585-1.791,2.073-1.206,3.324C161.611,147.986,165.976,150.621,170.566,150.621z"/>
						</g>
					</g>
				</g>
				<g>
					<g>
						<g>
							<path class="st8" d="M143.605,142.395c1.333,0,2.68-0.221,3.986-0.674c1.304-0.453,1.994-1.877,1.541-3.182
								c-0.452-1.305-1.874-1.996-3.182-1.542c-2.508,0.873-5.269,0.283-7.201-1.537c-1.322-1.246-2.182-2.831-2.356-4.348
								c-0.157-1.372-1.408-2.354-2.77-2.197c-1.372,0.158-2.355,1.398-2.197,2.77c0.313,2.71,1.695,5.344,3.896,7.416
								C137.609,141.253,140.575,142.395,143.605,142.395z"/>
						</g>
					</g>
				</g>
				<g>
					<g>
						<g>
							<path class="st8" d="M152.786,160.952c1.498-0.817,2.919-2.525,3.874-3.86c0.981,0.485,1.847,1.194,2.517,2.078
								c0.719,0.948,1.189,2.064,1.363,3.229c0.186,1.24,1.252,2.131,2.47,2.131c0.122,0,0.247-0.009,0.372-0.028
								c1.365-0.204,2.308-1.476,2.104-2.842c-0.297-1.99-1.101-3.895-2.323-5.51c-1.722-2.271-4.199-3.867-6.976-4.493
								c-1.066-0.239-2.151,0.234-2.702,1.167c-0.75,1.269-2.241,3.274-3.093,3.738c-2.175,1.187-4.868,0.991-6.859-0.497
								c-1.106-0.828-2.674-0.601-3.499,0.505c-0.827,1.106-0.601,2.672,0.505,3.499
								C144.09,162.726,148.897,163.074,152.786,160.952z"/>
						</g>
					</g>
				</g>
				<g>
					<g>
						<g>
							<path class="st8" d="M175.87,133.768c1.365-0.202,2.31-1.472,2.108-2.838c-0.202-1.366-1.465-2.314-2.839-2.108
								c-2.105,0.311-4.229-0.331-5.809-1.764c-1.021-0.928-2.604-0.85-3.531,0.172c-0.928,1.022-0.851,2.604,0.172,3.531
								c2.246,2.038,5.13,3.138,8.114,3.138C174.678,133.899,175.274,133.855,175.87,133.768z"/>
						</g>
					</g>
				</g>
				<g>
					<g>
						<g>
							<g>
								<path class="st8" d="M148.02,124.762c0.488,0.484,1.125,0.726,1.762,0.726c0.643,0,1.285-0.247,1.774-0.739
									c0.973-0.979,0.967-2.563-0.013-3.535c-2.368-2.351-5.322-4.024-8.544-4.837c-1.338-0.336-2.697,0.473-3.036,1.812
									c-0.338,1.339,0.474,2.698,1.812,3.036C144.128,121.819,146.287,123.042,148.02,124.762z"/>
							</g>
						</g>
					</g>
					<g>
						<g>
							<g>
								<path class="st8" d="M156.846,117.429c1.207-0.671,1.641-2.193,0.97-3.4c-0.671-1.206-2.192-1.641-3.399-0.969
									c-3.278,1.823-5.649,4.813-6.678,8.42s-0.59,7.398,1.233,10.675c0.457,0.822,1.309,1.285,2.187,1.285
									c0.411,0,0.828-0.102,1.214-0.316c1.206-0.671,1.64-2.193,0.969-3.4c-1.174-2.11-1.456-4.552-0.794-6.874
									S154.735,118.603,156.846,117.429z"/>
							</g>
						</g>
					</g>
				</g>
				<g>
					<g>
						<g>
							<path class="st8" d="M156.68,142.576c-1.374,0.138-2.376,1.363-2.238,2.737c0.129,1.289,1.216,2.251,2.484,2.251
								c0.083,0,0.167-0.004,0.252-0.012c2.491-0.25,4.736-1.454,6.321-3.392c1.586-1.938,2.322-4.377,2.072-6.868
								c-0.137-1.373-1.343-2.371-2.736-2.239c-1.374,0.138-2.376,1.363-2.238,2.737c0.116,1.162-0.228,2.3-0.967,3.204
								C158.89,141.897,157.843,142.459,156.68,142.576z"/>
						</g>
					</g>
				</g>
				<g>
					<g>
						<g>
							<path class="st8" d="M168.653,98.308c-1.862-6.055-7.463-10.357-13.869-10.523c-2.195-3.897-6.293-6.332-10.875-6.332
								c-5.447,0-10.396,3.596-12.035,8.745c-0.313,0.979-0.464,2.053-0.464,3.283v69.469c0,5.853,6.313,11.597,12.744,11.597
								c3.642,0,7.088-1.562,9.491-4.242c4.678,0.293,9.084-2.219,11.222-6.323c6.483-1.4,11.27-7.252,11.27-13.965
								c0-0.478-0.024-0.959-0.073-1.44c2.668-2.768,4.177-6.472,4.177-10.345c0-2.452-0.593-4.833-1.727-6.971
								c1.134-2.138,1.727-4.519,1.727-6.971c0-3.375-1.126-6.599-3.195-9.222c0.229-1.045,0.344-2.113,0.344-3.189
								C177.389,106,173.931,100.708,168.653,98.308z M173.531,132.667c1.118,1.644,1.709,3.568,1.709,5.565
								c0,2.856-1.235,5.575-3.391,7.459c-0.327,0.287-0.595,0.712-0.736,1.124l-0.052,0.148c-0.145,0.415-0.177,0.861-0.094,1.292
								c0.112,0.585,0.169,1.178,0.169,1.761c0,4.557-3.392,8.504-7.889,9.181c-0.423,0.063-0.822,0.234-1.159,0.497l-0.668,0.519
								c-0.336,0.26-0.6,0.601-0.767,0.99c-1.074,2.506-3.529,4.125-6.255,4.125c-0.45,0-0.901-0.045-1.343-0.133
								c-0.978-0.201-1.975,0.207-2.542,1.023c-1.45,2.084-3.828,3.328-6.36,3.328c-3.619,0-7.744-3.514-7.744-6.597V93.481
								c0-0.707,0.074-1.284,0.228-1.766c0.986-3.098,3.977-5.262,7.271-5.262c3.118,0,5.862,1.879,6.992,4.788
								c0.404,1.042,1.456,1.694,2.563,1.584c0.309-0.029,0.619-0.046,0.935-0.046c4.674,0,8.755,3.315,9.702,7.884
								c0.179,0.861,0.797,1.565,1.628,1.854c3.983,1.384,6.659,5.146,6.659,9.362c0,1.04-0.162,2.068-0.481,3.055
								c-0.283,0.875-0.063,1.835,0.574,2.5c1.779,1.856,2.759,4.291,2.759,6.857c0,1.997-0.591,3.921-1.709,5.564
								C172.954,130.704,172.954,131.818,173.531,132.667z"/>
						</g>
					</g>
				</g>
			</g>
		</g>
		<g>
			<g>
				<g>
					<g>
						<path class="st9" d="M116.037,118.189c-0.286-1.133-1.303-1.889-2.421-1.889c-0.203,0-0.409,0.025-0.615,0.077
							c-2.05,0.517-3.99,1.386-5.741,2.553c-1.254-2.461-3.207-4.497-5.676-5.87c-0.385-0.214-0.802-0.316-1.213-0.316
							c-0.878,0-1.729,0.463-2.186,1.285c-0.671,1.207-0.237,2.729,0.97,3.4c2.11,1.174,3.637,3.099,4.299,5.421
							s0.38,4.764-0.794,6.874c-0.671,1.207-0.237,2.729,0.969,3.4c0.386,0.214,0.802,0.316,1.214,0.316
							c0.878,0,1.729-0.463,2.187-1.285c1.391-2.5,1.97-5.3,1.712-8.089c1.587-1.354,3.464-2.332,5.485-2.842
							C115.563,120.887,116.375,119.528,116.037,118.189z M113.858,119.77c-2.224,0.562-4.331,1.653-6.091,3.155
							c-0.371,0.317-0.565,0.793-0.52,1.279c0.232,2.509-0.297,5.007-1.529,7.222c-0.176,0.317-0.512,0.514-0.876,0.514
							c-0.17,0-0.333-0.043-0.485-0.127c-0.481-0.268-0.655-0.878-0.387-1.36c1.369-2.461,1.698-5.307,0.926-8.015
							s-2.552-4.952-5.013-6.321c-0.482-0.268-0.655-0.878-0.388-1.36c0.177-0.317,0.512-0.514,0.876-0.514
							c0.17,0,0.333,0.042,0.484,0.127c2.189,1.217,3.942,3.029,5.068,5.24c0.194,0.382,0.543,0.662,0.957,0.77
							c0.125,0.033,0.253,0.049,0.38,0.049c0.293,0,0.583-0.086,0.832-0.252c1.627-1.084,3.402-1.874,5.278-2.347
							c0.082-0.021,0.165-0.031,0.247-0.031c0.457,0,0.854,0.311,0.966,0.756C114.718,119.091,114.393,119.635,113.858,119.77z"/>
					</g>
				</g>
			</g>
			<g>
				<g>
					<g>
						<path class="st9" d="M79.937,148.577c-0.049,0.48-0.073,0.962-0.073,1.44c0,6.713,4.786,12.565,11.27,13.965
							c2.024,3.883,6.079,6.347,10.471,6.347c0.249,0,0.499-0.008,0.75-0.024c2.403,2.68,5.85,4.242,9.491,4.242
							c6.432,0,12.744-5.744,12.744-11.597V93.481c0-1.229-0.151-2.303-0.464-3.282c-1.639-5.149-6.588-8.746-12.035-8.746
							c-4.582,0-8.68,2.434-10.875,6.332c-6.406,0.166-12.007,4.468-13.869,10.523c-5.277,2.4-8.735,7.693-8.735,13.572
							c0,1.076,0.115,2.144,0.344,3.189c-2.069,2.623-3.195,5.847-3.195,9.222c0,2.452,0.593,4.833,1.727,6.971
							c-1.134,2.139-1.727,4.519-1.727,6.971C75.76,142.105,77.269,145.809,79.937,148.577z M78.812,130.559
							c-1.015-1.915-1.552-4.082-1.552-6.268c0-3.043,0.993-5.911,2.873-8.292c0.278-0.353,0.384-0.811,0.288-1.25
							c-0.205-0.938-0.309-1.904-0.309-2.869c0-5.244,3.084-10.036,7.856-12.206c0.391-0.178,0.686-0.514,0.813-0.925
							c1.695-5.511,6.708-9.315,12.474-9.464c0.528-0.014,1.009-0.303,1.268-0.763c1.964-3.486,5.541-5.568,9.568-5.568
							c4.802,0,9.163,3.167,10.606,7.702c0.264,0.828,0.393,1.753,0.393,2.826v69.469c0,5.001-5.675,10.097-11.244,10.097
							c-3.189,0-6.241-1.365-8.374-3.744c-0.286-0.318-0.692-0.499-1.117-0.499c-0.032,0-0.064,0.001-0.096,0.003
							c-0.219,0.014-0.437,0.021-0.655,0.021c-3.858,0-7.36-2.123-9.141-5.54c-0.206-0.396-0.578-0.679-1.014-0.773
							c-5.844-1.262-10.086-6.518-10.086-12.499c0-0.427,0.022-0.86,0.066-1.288c0.045-0.439-0.106-0.875-0.412-1.193
							c-2.423-2.513-3.757-5.818-3.757-9.304c0-2.186,0.537-4.354,1.552-6.269C79.045,131.524,79.045,130.998,78.812,130.559z"/>
						<path class="st9" d="M81.913,132.398c-0.001,0-0.002,0-0.003,0l-0.126-0.005c-0.007,0-0.015,0-0.022,0
							c-0.573,0-1.096,0.326-1.348,0.842c-0.766,1.569-1.155,3.25-1.155,4.997c0,3.125,1.317,6.153,3.613,8.308
							c0.195,0.183,0.435,0.31,0.696,0.369c0.614,0.139,1.244,0.209,1.874,0.209c2.904,0,5.592-1.447,7.19-3.872
							c0.296-0.448,0.329-1.021,0.087-1.5c-0.671-1.332-0.947-2.821-0.798-4.307c0.051-0.513,0.477-0.9,0.99-0.9
							c0.034,0,0.069,0.002,0.104,0.005c0.549,0.055,0.95,0.546,0.895,1.095c-0.156,1.56,0.305,3.088,1.299,4.304
							c0.994,1.214,2.401,1.968,3.961,2.124c0.549,0.055,0.95,0.546,0.895,1.095c-0.051,0.513-0.478,0.9-0.992,0.9
							c-0.035,0-0.07-0.002-0.103-0.005c-1.201-0.12-2.334-0.508-3.368-1.151c-0.245-0.153-0.52-0.227-0.792-0.227
							c-0.436,0-0.866,0.19-1.16,0.548c-2.001,2.437-5.073,3.892-8.218,3.892c-0.112,0-0.223-0.006-0.335-0.012l-0.139-0.007
							c-0.023-0.001-0.046-0.001-0.069-0.001c-0.402,0-0.788,0.161-1.07,0.449c-0.299,0.304-0.454,0.721-0.427,1.147
							c0.28,4.375,3.271,8.225,7.443,9.579c0.154,0.05,0.31,0.073,0.463,0.073c0.592,0,1.149-0.353,1.386-0.928
							c0.353-0.855,0.806-1.65,1.346-2.364c1.509-1.99,3.679-3.388,6.109-3.937c0.074-0.017,0.149-0.025,0.223-0.025
							c0.352,0,0.681,0.188,0.862,0.494c0.559,0.942,2.307,3.55,3.665,4.289c1.145,0.625,2.444,0.955,3.755,0.955
							c1.693,0,3.37-0.557,4.721-1.567c0.22-0.165,0.446-0.199,0.597-0.199c0.319,0,0.612,0.146,0.803,0.402
							c0.16,0.214,0.227,0.477,0.189,0.741c-0.038,0.264-0.177,0.498-0.391,0.658c-1.694,1.266-3.797,1.963-5.924,1.963
							c-1.646,0-3.274-0.414-4.708-1.196c-0.982-0.536-2.18-1.749-3.372-3.416c-0.29-0.405-0.75-0.628-1.221-0.628
							c-0.224,0-0.451,0.051-0.664,0.156c-1.191,0.588-2.245,1.459-3.049,2.518c-0.689,0.909-1.184,1.943-1.472,3.074
							c-0.092,0.362-0.046,0.745,0.129,1.074c1.447,2.724,4.251,4.416,7.317,4.416c0.547,0,1.097-0.054,1.642-0.163
							c0.061-0.012,0.125-0.019,0.191-0.019c0.327,0,0.634,0.16,0.821,0.428c1.73,2.487,4.568,3.971,7.592,3.971
							c4.492,0,9.244-4.162,9.244-8.097V140c0-0.567-0.32-1.086-0.827-1.34c-0.213-0.107-0.444-0.16-0.673-0.16
							c-0.317,0-0.632,0.1-0.896,0.296c-1.846,1.373-4.024,2.099-6.3,2.099c-1.188,0-2.364-0.199-3.494-0.591
							c-0.521-0.181-0.797-0.752-0.616-1.274c0.14-0.403,0.518-0.673,0.942-0.673c0.111,0,0.223,0.019,0.331,0.057
							c0.916,0.318,1.869,0.479,2.833,0.479c2.193,0,4.284-0.831,5.889-2.342c1.533-1.444,2.553-3.319,2.798-5.142
							c0.009-0.066,0.013-0.133,0.013-0.199V93.481c0-0.865-0.098-1.591-0.298-2.22c-1.182-3.714-4.76-6.308-8.701-6.308
							c-3.541,0-6.665,2.007-8.153,5.238c-0.115,0.25-0.159,0.526-0.128,0.799c0.355,3.088,2.262,5.668,5.099,6.901
							c0.506,0.22,0.738,0.81,0.519,1.316c-0.159,0.366-0.519,0.602-0.918,0.602c-0.137,0-0.27-0.028-0.397-0.083
							c-0.294-0.128-0.601-0.282-0.964-0.485c-0.226-0.126-0.478-0.19-0.731-0.19c-0.178,0-0.356,0.031-0.526,0.095
							c-0.413,0.155-0.737,0.483-0.885,0.898c-0.666,1.856-1.981,3.381-3.702,4.294c-0.147,0.078-0.304,0.117-0.467,0.117
							c-0.372,0-0.711-0.204-0.885-0.532c-0.125-0.236-0.151-0.506-0.073-0.761c0.078-0.255,0.251-0.465,0.487-0.59
							c2.798-1.484,3.905-4.886,2.509-7.767c-0.362-0.717-0.644-1.495-0.839-2.314c-0.162-0.681-0.771-1.153-1.458-1.153
							c-0.052,0-0.105,0.003-0.158,0.008c-4.299,0.451-8.039,3.364-9.527,7.421c-0.204,0.557-0.061,1.183,0.366,1.595
							c2.192,2.118,3.367,5.073,3.224,8.109c-0.118,2.494-1.117,4.875-2.812,6.702c-0.191,0.206-0.452,0.32-0.734,0.32
							c-0.252,0-0.494-0.095-0.679-0.266c-0.404-0.375-0.428-1.01-0.054-1.414c1.375-1.482,2.185-3.413,2.281-5.437
							c0.11-2.34-0.764-4.656-2.398-6.354c-0.29-0.302-0.683-0.46-1.082-0.46c-0.232,0-0.467,0.054-0.683,0.165
							c-3.831,1.963-6.211,5.852-6.211,10.151c0,1.197,0.187,2.38,0.554,3.516c0.113,0.351,0.025,0.734-0.23,1
							c-2.048,2.136-3.176,4.94-3.176,7.895c0,1.845,0.446,3.627,1.325,5.297c0.26,0.493,0.771,0.801,1.327,0.801
							c0,0,0.001,0,0.001,0c2.141-0.002,4.188-0.791,5.765-2.221c0.184-0.167,0.422-0.259,0.67-0.259
							c0.286,0,0.55,0.116,0.742,0.329c0.179,0.198,0.271,0.453,0.258,0.72c-0.013,0.267-0.129,0.513-0.327,0.692
							C87.067,131.422,84.545,132.398,81.913,132.398z M90.2,127.229c-0.493-0.544-1.172-0.821-1.853-0.821
							c-0.599,0-1.2,0.214-1.678,0.649c-1.316,1.194-3.009,1.829-4.757,1.831c-0.744-1.413-1.152-2.977-1.152-4.598
							c0-2.566,0.979-5.001,2.759-6.857c0.637-0.664,0.857-1.624,0.574-2.5c-0.319-0.987-0.481-2.015-0.481-3.055
							c0-3.751,2.121-7.139,5.395-8.816c1.341,1.394,2.073,3.271,1.98,5.244c-0.079,1.671-0.747,3.264-1.882,4.487
							c-0.938,1.013-0.879,2.594,0.133,3.533c0.481,0.446,1.091,0.667,1.699,0.667c0.672,0,1.342-0.269,1.834-0.8
							c1.936-2.087,3.075-4.804,3.21-7.651c0.166-3.513-1.195-6.858-3.68-9.259c1.292-3.522,4.517-6.052,8.275-6.446
							c0.22,0.923,0.539,1.81,0.959,2.642c1.02,2.104,0.21,4.661-1.872,5.766c-1.22,0.647-1.684,2.161-1.036,3.38
							c0.449,0.846,1.314,1.329,2.21,1.329c0.396,0,0.797-0.094,1.17-0.292c2.141-1.136,3.651-2.994,4.411-5.113
							c0.355,0.198,0.718,0.386,1.097,0.551c0.324,0.141,0.662,0.208,0.995,0.208c0.965,0,1.885-0.563,2.294-1.504
							c0.55-1.266-0.03-2.739-1.297-3.289c-2.35-1.021-3.917-3.179-4.207-5.697c1.225-2.66,3.831-4.366,6.791-4.366
							c3.295,0,6.285,2.164,7.271,5.263c0.153,0.481,0.228,1.059,0.228,1.765v37.729c-0.2,1.488-1.046,3.031-2.34,4.25
							c-1.342,1.263-3.082,1.933-4.86,1.933c-0.783,0-1.573-0.13-2.341-0.396c-0.273-0.095-0.55-0.14-0.823-0.14
							c-1.036,0-2.001,0.649-2.359,1.682c-0.453,1.304,0.237,2.729,1.541,3.182c1.307,0.454,2.652,0.674,3.986,0.674
							c2.572,0,5.092-0.831,7.195-2.395v22.951c0,3.083-4.125,6.597-7.744,6.597c-2.532,0-4.91-1.244-6.36-3.328
							c-0.473-0.68-1.244-1.072-2.052-1.072c-0.162,0-0.327,0.016-0.49,0.049c-0.441,0.088-0.893,0.133-1.343,0.133
							c-2.533,0-4.818-1.41-5.992-3.62c0.232-0.912,0.64-1.78,1.214-2.538c0.671-0.884,1.536-1.594,2.518-2.079
							c0.955,1.335,2.376,3.043,3.874,3.86c1.694,0.924,3.563,1.379,5.426,1.379c2.413,0,4.817-0.763,6.822-2.261
							c1.105-0.827,1.332-2.393,0.505-3.499c-0.491-0.656-1.243-1.003-2.004-1.003c-0.521,0-1.046,0.162-1.495,0.498
							c-1.124,0.84-2.472,1.268-3.823,1.268c-1.043,0-2.089-0.255-3.036-0.771c-0.774-0.422-2.225-2.274-3.093-3.738
							c-0.456-0.772-1.279-1.229-2.152-1.229c-0.182,0-0.367,0.02-0.551,0.061c-2.776,0.626-5.254,2.222-6.977,4.494
							c-0.629,0.831-1.142,1.74-1.537,2.697c-3.572-1.159-6.166-4.442-6.409-8.248c0.181,0.008,0.363,0.021,0.543,0.021
							c3.609,0,7.073-1.634,9.377-4.44c1.201,0.748,2.562,1.225,4.011,1.37c0.085,0.008,0.169,0.012,0.252,0.012
							c1.269,0,2.355-0.962,2.484-2.251c0.138-1.374-0.864-2.599-2.238-2.737c-1.163-0.116-2.21-0.678-2.95-1.582
							c-0.739-0.904-1.083-2.042-0.967-3.204c0.138-1.374-0.864-2.599-2.238-2.737c-0.085-0.009-0.17-0.013-0.254-0.013
							c-1.272,0-2.354,0.963-2.483,2.251c-0.18,1.794,0.159,3.558,0.951,5.13c-1.324,2.009-3.58,3.197-5.938,3.197
							c-0.513,0-1.029-0.056-1.543-0.172c-1.994-1.871-3.139-4.476-3.139-7.214c0-1.52,0.346-2.995,1.002-4.339
							c0.051,0.001,0.101,0.006,0.152,0.006c2.984,0,5.868-1.101,8.114-3.138C91.051,129.833,91.128,128.252,90.2,127.229z"/>
					</g>
				</g>
			</g>
			<g>
				<g>
					<g>
						<path class="st9" d="M156.846,117.429c1.207-0.671,1.641-2.193,0.97-3.4c-0.457-0.821-1.308-1.285-2.186-1.285
							c-0.411,0-0.828,0.102-1.213,0.316c-2.469,1.373-4.422,3.408-5.675,5.87c-1.751-1.167-3.691-2.035-5.742-2.553
							c-0.205-0.051-0.41-0.076-0.612-0.076c-1.118,0-2.137,0.754-2.424,1.888c-0.338,1.339,0.474,2.698,1.812,3.036
							c2.021,0.51,3.898,1.488,5.485,2.842c-0.258,2.789,0.321,5.588,1.712,8.089c0.457,0.822,1.309,1.285,2.187,1.285
							c0.411,0,0.828-0.102,1.214-0.316c1.206-0.671,1.64-2.193,0.969-3.4c-1.174-2.11-1.456-4.552-0.794-6.874
							S154.735,118.603,156.846,117.429z M152.03,130.454c0.268,0.482,0.094,1.092-0.386,1.36c-0.152,0.084-0.315,0.127-0.485,0.127
							c-0.364,0-0.699-0.197-0.876-0.514c-1.232-2.215-1.761-4.712-1.529-7.221c0.045-0.486-0.149-0.962-0.52-1.279
							c-1.761-1.502-3.867-2.594-6.091-3.155c-0.534-0.135-0.859-0.68-0.725-1.213c0.113-0.445,0.512-0.756,0.97-0.756
							c0.082,0,0.165,0.01,0.245,0.03c1.875,0.473,3.65,1.263,5.277,2.347c0.249,0.166,0.539,0.252,0.832,0.252
							c0.127,0,0.255-0.016,0.38-0.049c0.414-0.108,0.762-0.389,0.957-0.77c1.126-2.21,2.878-4.022,5.068-5.24
							c0.151-0.084,0.314-0.126,0.484-0.126c0.364,0,0.699,0.197,0.875,0.514c0.268,0.482,0.094,1.092-0.388,1.36
							c-2.46,1.368-4.24,3.613-5.012,6.321S150.661,127.993,152.03,130.454z"/>
					</g>
				</g>
			</g>
			<g>
				<g>
					<g>
						<path class="st9" d="M168.653,98.308c-1.862-6.055-7.463-10.357-13.869-10.523c-2.195-3.897-6.293-6.332-10.875-6.332
							c-5.447,0-10.396,3.596-12.035,8.745c-0.313,0.979-0.464,2.053-0.464,3.283v69.469c0,5.853,6.313,11.597,12.744,11.597
							c3.642,0,7.088-1.562,9.491-4.242c0.247,0.016,0.494,0.023,0.74,0.023c4.398,0,8.457-2.459,10.482-6.346
							c6.483-1.4,11.27-7.252,11.27-13.965c0-0.478-0.024-0.959-0.073-1.44c2.668-2.768,4.177-6.472,4.177-10.345
							c0-2.452-0.593-4.833-1.727-6.971c1.134-2.138,1.727-4.519,1.727-6.971c0-3.375-1.126-6.599-3.195-9.222
							c0.229-1.045,0.344-2.113,0.344-3.189C177.389,106,173.931,100.708,168.653,98.308z M178.74,124.291
							c0,2.186-0.537,4.354-1.552,6.268c-0.233,0.439-0.233,0.966,0,1.405c1.015,1.915,1.552,4.083,1.552,6.269
							c0,3.486-1.334,6.79-3.757,9.304c-0.306,0.318-0.457,0.754-0.412,1.193c0.043,0.428,0.066,0.862,0.066,1.288
							c0,5.98-4.242,11.237-10.086,12.499c-0.436,0.094-0.808,0.378-1.014,0.773c-1.78,3.417-5.286,5.539-9.152,5.539
							c-0.214,0-0.43-0.007-0.646-0.02c-0.031-0.002-0.063-0.003-0.094-0.003c-0.425,0-0.831,0.18-1.117,0.499
							c-2.133,2.379-5.186,3.744-8.374,3.744c-5.57,0-11.244-5.095-11.244-10.097V93.481c0-1.073,0.129-1.998,0.393-2.828
							c1.443-4.534,5.804-7.7,10.606-7.7c4.027,0,7.604,2.081,9.568,5.568c0.259,0.46,0.74,0.75,1.268,0.763
							c5.766,0.149,10.779,3.953,12.474,9.464c0.126,0.41,0.422,0.747,0.813,0.925c4.773,2.171,7.856,6.962,7.856,12.206
							c0,0.965-0.104,1.931-0.309,2.869c-0.096,0.438,0.01,0.897,0.288,1.25C177.747,118.38,178.74,121.247,178.74,124.291z"/>
						<path class="st9" d="M167.653,127.909c0.248,0,0.486,0.092,0.67,0.259c1.575,1.429,3.622,2.218,5.764,2.22
							c0.001,0,0.001,0,0.002,0c0.557,0,1.068-0.308,1.327-0.801c0.879-1.669,1.325-3.451,1.325-5.297
							c0-2.955-1.128-5.759-3.176-7.895c-0.255-0.266-0.343-0.649-0.23-1c0.368-1.137,0.554-2.32,0.554-3.517
							c0-4.299-2.38-8.188-6.211-10.151c-0.217-0.111-0.451-0.165-0.683-0.165c-0.399,0-0.792,0.159-1.082,0.46
							c-1.634,1.698-2.508,4.014-2.398,6.354c0.096,2.024,0.906,3.955,2.28,5.436c0.375,0.405,0.351,1.039-0.052,1.414
							c-0.186,0.172-0.427,0.267-0.679,0.267c-0.282,0-0.543-0.114-0.734-0.32c-1.695-1.827-2.693-4.208-2.812-6.702
							c-0.144-3.036,1.031-5.991,3.224-8.109c0.427-0.412,0.571-1.038,0.366-1.595c-1.488-4.057-5.228-6.97-9.527-7.421
							c-0.053-0.006-0.105-0.008-0.158-0.008c-0.687,0-1.296,0.471-1.458,1.153c-0.195,0.818-0.477,1.597-0.85,2.335
							c-1.385,2.859-0.279,6.261,2.519,7.745c0.236,0.125,0.409,0.335,0.487,0.59c0.078,0.255,0.052,0.526-0.073,0.762
							c-0.174,0.328-0.513,0.532-0.885,0.532c-0.164,0-0.32-0.039-0.467-0.117c-1.722-0.914-3.037-2.439-3.703-4.295
							c-0.149-0.415-0.473-0.743-0.885-0.898c-0.17-0.064-0.349-0.095-0.526-0.095c-0.253,0-0.505,0.064-0.731,0.19
							c-0.363,0.203-0.67,0.357-0.965,0.485c-0.126,0.055-0.26,0.083-0.396,0.083c-0.399,0-0.759-0.236-0.918-0.602
							c-0.22-0.506,0.013-1.096,0.519-1.316c2.837-1.233,4.743-3.813,5.099-6.901c0.031-0.273-0.013-0.55-0.128-0.799
							c-1.488-3.231-4.612-5.238-8.153-5.238c-3.941,0-7.519,2.594-8.701,6.307c-0.201,0.63-0.298,1.357-0.298,2.221v37.729
							c0,0.067,0.004,0.133,0.013,0.199c0.245,1.823,1.265,3.698,2.798,5.143c1.604,1.51,3.695,2.341,5.889,2.341
							c0.964,0,1.918-0.162,2.833-0.48c0.108-0.037,0.219-0.056,0.33-0.056c0.424,0,0.803,0.27,0.943,0.674
							c0.181,0.521-0.096,1.092-0.616,1.272c-1.132,0.393-2.308,0.592-3.495,0.592c-2.276,0-4.455-0.726-6.3-2.098
							c-0.264-0.196-0.579-0.296-0.895-0.296c-0.23,0-0.46,0.053-0.673,0.16c-0.507,0.255-0.827,0.773-0.827,1.34v22.95
							c0,3.935,4.752,8.097,9.244,8.097c3.023,0,5.861-1.485,7.592-3.972c0.187-0.269,0.491-0.43,0.813-0.43
							c0.065,0,0.131,0.007,0.205,0.022c0.539,0.107,1.089,0.162,1.636,0.162c3.066,0,5.87-1.692,7.317-4.416
							c0.175-0.33,0.221-0.713,0.129-1.074c-0.288-1.131-0.784-2.165-1.473-3.075c-0.802-1.058-1.856-1.928-3.048-2.517
							c-0.213-0.105-0.439-0.156-0.664-0.156c-0.471,0-0.931,0.223-1.221,0.628c-1.192,1.667-2.39,2.88-3.372,3.416
							c-1.435,0.783-3.064,1.197-4.709,1.197c-2.126,0-4.229-0.697-5.922-1.964c-0.214-0.16-0.353-0.394-0.391-0.658
							c-0.038-0.264,0.029-0.528,0.19-0.743c0.19-0.254,0.482-0.4,0.801-0.4c0.151,0,0.377,0.035,0.598,0.2
							c1.352,1.01,3.029,1.566,4.722,1.566c1.311,0,2.609-0.33,3.752-0.954c1.367-0.745,3.11-3.351,3.667-4.293
							c0.181-0.308,0.502-0.491,0.857-0.491c0.075,0,0.15,0.009,0.223,0.025c2.432,0.549,4.603,1.947,6.11,3.936
							c0.541,0.714,0.995,1.51,1.348,2.366c0.237,0.574,0.794,0.927,1.386,0.927c0.154,0,0.31-0.024,0.463-0.073
							c4.172-1.354,7.163-5.203,7.443-9.579c0.027-0.426-0.128-0.843-0.427-1.147c-0.283-0.288-0.669-0.449-1.07-0.449
							c-0.023,0-0.046,0-0.069,0.001l-0.139,0.007c-0.112,0.006-0.224,0.012-0.335,0.012c-3.145,0-6.217-1.455-8.218-3.892
							c-0.294-0.358-0.724-0.548-1.16-0.548c-0.272,0-0.547,0.074-0.792,0.227c-1.034,0.644-2.167,1.031-3.364,1.151
							c-0.036,0.003-0.071,0.005-0.106,0.005c-0.514,0-0.941-0.387-0.992-0.901c-0.055-0.549,0.347-1.04,0.895-1.094
							c1.56-0.156,2.967-0.91,3.962-2.125c0.993-1.215,1.454-2.743,1.298-4.303c-0.055-0.549,0.347-1.04,0.887-1.094
							c0.035-0.003,0.07-0.005,0.105-0.005c0.526,0,0.945,0.378,0.997,0.9c0.149,1.484-0.127,2.973-0.798,4.305
							c-0.242,0.48-0.208,1.052,0.087,1.5c1.598,2.424,4.286,3.872,7.191,3.872c0.629,0,1.259-0.07,1.873-0.209
							c0.261-0.059,0.501-0.187,0.696-0.369c2.296-2.155,3.613-5.183,3.613-8.308c0-1.747-0.388-3.428-1.155-4.997
							c-0.252-0.516-0.775-0.842-1.348-0.842c-0.007,0-0.015,0-0.022,0l-0.13,0.005c-2.628,0-5.152-0.976-7.106-2.749
							c-0.198-0.179-0.314-0.425-0.327-0.692c-0.013-0.267,0.079-0.523,0.258-0.72C167.103,128.026,167.366,127.909,167.653,127.909
							z M165.972,130.761c2.246,2.038,5.13,3.138,8.114,3.138c0.05,0,0.101-0.005,0.152-0.006c0.656,1.344,1.002,2.82,1.002,4.339
							c0,2.739-1.146,5.343-3.139,7.214c-0.513,0.116-1.03,0.172-1.542,0.172c-2.357,0-4.614-1.188-5.938-3.197
							c0.792-1.572,1.131-3.336,0.951-5.13c-0.129-1.291-1.203-2.25-2.49-2.25c-0.082,0-0.164,0.004-0.247,0.012
							c-1.374,0.138-2.376,1.363-2.238,2.737c0.116,1.162-0.228,2.3-0.967,3.204c-0.74,0.904-1.787,1.466-2.95,1.582
							c-1.374,0.138-2.376,1.363-2.238,2.737c0.129,1.289,1.216,2.251,2.484,2.251c0.083,0,0.167-0.004,0.252-0.012
							c1.449-0.145,2.81-0.622,4.011-1.37c2.304,2.806,5.768,4.44,9.378,4.44c0.181,0,0.362-0.012,0.543-0.021
							c-0.244,3.806-2.837,7.089-6.409,8.248c-0.396-0.957-0.909-1.867-1.538-2.698c-1.722-2.271-4.199-3.867-6.976-4.493
							c-0.185-0.042-0.37-0.062-0.553-0.062c-0.873,0-1.694,0.457-2.149,1.229c-0.75,1.269-2.241,3.274-3.093,3.738
							c-0.947,0.517-1.992,0.771-3.035,0.771c-1.352,0-2.7-0.428-3.825-1.268c-0.449-0.336-0.975-0.498-1.496-0.498
							c-0.762,0-1.513,0.347-2.003,1.003c-0.827,1.106-0.601,2.672,0.505,3.499c2.004,1.499,4.408,2.262,6.821,2.262
							c1.864,0,3.733-0.456,5.427-1.38c1.498-0.817,2.919-2.525,3.874-3.86c0.981,0.485,1.847,1.194,2.517,2.078
							c0.575,0.759,0.983,1.627,1.215,2.539c-1.174,2.21-3.459,3.62-5.992,3.62c-0.45,0-0.901-0.045-1.343-0.133
							c-0.166-0.034-0.333-0.051-0.498-0.051c-0.806,0-1.573,0.396-2.044,1.074c-1.45,2.084-3.828,3.328-6.36,3.328
							c-3.619,0-7.744-3.514-7.744-6.597V140c2.103,1.564,4.624,2.395,7.195,2.395c1.333,0,2.68-0.221,3.986-0.674
							c1.304-0.453,1.994-1.877,1.541-3.182c-0.358-1.033-1.324-1.681-2.359-1.681c-0.272,0-0.55,0.045-0.822,0.139
							c-0.767,0.267-1.557,0.397-2.341,0.397c-1.778,0-3.519-0.67-4.861-1.934c-1.294-1.219-2.14-2.763-2.34-4.25V93.481
							c0-0.707,0.074-1.284,0.228-1.766c0.986-3.098,3.977-5.262,7.271-5.262c2.96,0,5.565,1.706,6.791,4.366
							c-0.29,2.518-1.857,4.676-4.207,5.697c-1.267,0.55-1.847,2.023-1.297,3.289c0.409,0.942,1.329,1.504,2.294,1.504
							c0.333,0,0.671-0.066,0.995-0.208c0.379-0.165,0.742-0.353,1.097-0.551c0.761,2.119,2.271,3.977,4.411,5.113
							c0.373,0.198,0.774,0.292,1.17,0.292c0.896,0,1.761-0.482,2.21-1.329c0.647-1.219,0.184-2.733-1.036-3.38
							c-2.082-1.104-2.892-3.662-1.872-5.766c0.42-0.832,0.739-1.719,0.959-2.642c3.758,0.394,6.983,2.923,8.275,6.446
							c-2.485,2.401-3.846,5.746-3.68,9.259c0.135,2.847,1.274,5.564,3.21,7.651c0.492,0.531,1.162,0.8,1.834,0.8
							c0.608,0,1.218-0.221,1.699-0.667c1.012-0.939,1.071-2.521,0.133-3.533c-1.135-1.223-1.803-2.816-1.882-4.487
							c-0.093-1.972,0.64-3.85,1.98-5.244c3.273,1.677,5.395,5.064,5.395,8.816c0,1.04-0.162,2.068-0.481,3.055
							c-0.283,0.875-0.063,1.835,0.574,2.5c1.779,1.856,2.759,4.291,2.759,6.857c0,1.621-0.408,3.185-1.152,4.598
							c-1.747-0.002-3.442-0.637-4.757-1.831c-0.478-0.434-1.079-0.648-1.678-0.648c-0.681,0-1.36,0.277-1.853,0.82
							C164.872,128.252,164.949,129.833,165.972,130.761z"/>
					</g>
				</g>
			</g>
		</g>
		<g>
			<g>
				<g>
					<g>
						<g>
							<path class="st4" d="M95.994,69.021V48.827c0-1.381-1.119-2.5-2.5-2.5s-2.5,1.119-2.5,2.5v20.194c0,1.381,1.119,2.5,2.5,2.5
								S95.994,70.402,95.994,69.021z"/>
						</g>
					</g>
				</g>
				<g>
					<g>
						<g>
							<path class="st4" d="M130.5,69.021V48.827c0-1.381-1.119-2.5-2.5-2.5s-2.5,1.119-2.5,2.5v20.194c0,1.381,1.119,2.5,2.5,2.5
								S130.5,70.402,130.5,69.021z"/>
						</g>
					</g>
				</g>
				<g>
					<g>
						<g>
							<path class="st4" d="M165.006,69.021V48.827c0-1.381-1.119-2.5-2.5-2.5s-2.5,1.119-2.5,2.5v20.194c0,1.381,1.119,2.5,2.5,2.5
								S165.006,70.402,165.006,69.021z"/>
						</g>
					</g>
				</g>
			</g>
			<g>
				<g>
					<g>
						<g>
							<path class="st4" d="M95.994,207.173v-20.194c0-1.381-1.119-2.5-2.5-2.5s-2.5,1.119-2.5,2.5v20.194
								c0,1.381,1.119,2.5,2.5,2.5S95.994,208.554,95.994,207.173z"/>
						</g>
					</g>
				</g>
				<g>
					<g>
						<g>
							<path class="st4" d="M130.5,207.173v-20.194c0-1.381-1.119-2.5-2.5-2.5s-2.5,1.119-2.5,2.5v20.194c0,1.381,1.119,2.5,2.5,2.5
								S130.5,208.554,130.5,207.173z"/>
						</g>
					</g>
				</g>
				<g>
					<g>
						<g>
							<path class="st4" d="M165.006,207.173v-20.194c0-1.381-1.119-2.5-2.5-2.5s-2.5,1.119-2.5,2.5v20.194
								c0,1.381,1.119,2.5,2.5,2.5S165.006,208.554,165.006,207.173z"/>
						</g>
					</g>
				</g>
			</g>
			<g>
				<g>
					<g>
						<g>
							<g>
								<path class="st4" d="M221.12,95.995c1.381,0,2.5-1.119,2.5-2.5s-1.119-2.5-2.5-2.5h-20.194c-1.381,0-2.5,1.119-2.5,2.5
									s1.119,2.5,2.5,2.5H221.12z"/>
							</g>
						</g>
					</g>
					<g>
						<g>
							<g>
								<path class="st4" d="M221.12,130.5c1.381,0,2.5-1.119,2.5-2.5s-1.119-2.5-2.5-2.5h-20.194c-1.381,0-2.5,1.119-2.5,2.5
									s1.119,2.5,2.5,2.5H221.12z"/>
							</g>
						</g>
					</g>
					<g>
						<g>
							<g>
								<path class="st4" d="M221.12,165.005c1.381,0,2.5-1.119,2.5-2.5s-1.119-2.5-2.5-2.5h-20.194c-1.381,0-2.5,1.119-2.5,2.5
									s1.119,2.5,2.5,2.5H221.12z"/>
							</g>
						</g>
					</g>
				</g>
				<g>
					<g>
						<g>
							<g>
								<path class="st4" d="M55.074,95.995c1.381,0,2.5-1.119,2.5-2.5s-1.119-2.5-2.5-2.5H34.88c-1.381,0-2.5,1.119-2.5,2.5
									s1.119,2.5,2.5,2.5H55.074z"/>
							</g>
						</g>
					</g>
					<g>
						<g>
							<g>
								<path class="st4" d="M55.074,130.5c1.381,0,2.5-1.119,2.5-2.5s-1.119-2.5-2.5-2.5H34.88c-1.381,0-2.5,1.119-2.5,2.5
									s1.119,2.5,2.5,2.5H55.074z"/>
							</g>
						</g>
					</g>
					<g>
						<g>
							<g>
								<path class="st4" d="M55.074,165.005c1.381,0,2.5-1.119,2.5-2.5s-1.119-2.5-2.5-2.5H34.88c-1.381,0-2.5,1.119-2.5,2.5
									s1.119,2.5,2.5,2.5H55.074z"/>
							</g>
						</g>
					</g>
				</g>
			</g>
			<g>
				<g>
					<g>
						<g>
							<path class="st5" d="M95.994,69.021V48.827c0-1.381-1.119-2.5-2.5-2.5s-2.5,1.119-2.5,2.5v20.194c0,1.381,1.119,2.5,2.5,2.5
								S95.994,70.402,95.994,69.021z M92.494,69.021V48.827c0-0.552,0.449-1,1-1s1,0.448,1,1v20.194c0,0.552-0.449,1-1,1
								S92.494,69.573,92.494,69.021z"/>
						</g>
					</g>
				</g>
				<g>
					<g>
						<g>
							<path class="st5" d="M130.5,69.021V48.827c0-1.381-1.119-2.5-2.5-2.5s-2.5,1.119-2.5,2.5v20.194c0,1.381,1.119,2.5,2.5,2.5
								S130.5,70.402,130.5,69.021z M127,69.021V48.827c0-0.552,0.449-1,1-1s1,0.448,1,1v20.194c0,0.552-0.449,1-1,1
								S127,69.573,127,69.021z"/>
						</g>
					</g>
				</g>
				<g>
					<g>
						<g>
							<path class="st5" d="M165.006,69.021V48.827c0-1.381-1.119-2.5-2.5-2.5s-2.5,1.119-2.5,2.5v20.194c0,1.381,1.119,2.5,2.5,2.5
								S165.006,70.402,165.006,69.021z M161.506,69.021V48.827c0-0.552,0.449-1,1-1s1,0.448,1,1v20.194c0,0.552-0.449,1-1,1
								S161.506,69.573,161.506,69.021z"/>
						</g>
					</g>
				</g>
				<g>
					<g>
						<g>
							<path class="st5" d="M95.994,207.173v-20.194c0-1.381-1.119-2.5-2.5-2.5s-2.5,1.119-2.5,2.5v20.194
								c0,1.381,1.119,2.5,2.5,2.5S95.994,208.554,95.994,207.173z M92.494,207.173v-20.194c0-0.552,0.449-1,1-1s1,0.448,1,1v20.194
								c0,0.552-0.449,1-1,1S92.494,207.725,92.494,207.173z"/>
						</g>
					</g>
				</g>
				<g>
					<g>
						<g>
							<path class="st5" d="M130.5,207.173v-20.194c0-1.381-1.119-2.5-2.5-2.5s-2.5,1.119-2.5,2.5v20.194c0,1.381,1.119,2.5,2.5,2.5
								S130.5,208.554,130.5,207.173z M127,207.173v-20.194c0-0.552,0.449-1,1-1s1,0.448,1,1v20.194c0,0.552-0.449,1-1,1
								S127,207.725,127,207.173z"/>
						</g>
					</g>
				</g>
				<g>
					<g>
						<g>
							<path class="st5" d="M165.006,207.173v-20.194c0-1.381-1.119-2.5-2.5-2.5s-2.5,1.119-2.5,2.5v20.194
								c0,1.381,1.119,2.5,2.5,2.5S165.006,208.554,165.006,207.173z M161.506,207.173v-20.194c0-0.552,0.449-1,1-1s1,0.448,1,1
								v20.194c0,0.552-0.449,1-1,1S161.506,207.725,161.506,207.173z"/>
						</g>
					</g>
				</g>
				<g>
					<g>
						<g>
							<path class="st5" d="M221.12,95.995c1.381,0,2.5-1.119,2.5-2.5s-1.119-2.5-2.5-2.5h-20.194c-1.381,0-2.5,1.119-2.5,2.5
								s1.119,2.5,2.5,2.5H221.12z M199.926,93.495c0-0.552,0.449-1,1-1h20.194c0.551,0,1,0.448,1,1s-0.449,1-1,1h-20.194
								C200.374,94.495,199.926,94.046,199.926,93.495z"/>
						</g>
					</g>
				</g>
				<g>
					<g>
						<g>
							<path class="st5" d="M221.12,130.5c1.381,0,2.5-1.119,2.5-2.5s-1.119-2.5-2.5-2.5h-20.194c-1.381,0-2.5,1.119-2.5,2.5
								s1.119,2.5,2.5,2.5H221.12z M199.926,128c0-0.552,0.449-1,1-1h20.194c0.551,0,1,0.448,1,1s-0.449,1-1,1h-20.194
								C200.374,129,199.926,128.552,199.926,128z"/>
						</g>
					</g>
				</g>
				<g>
					<g>
						<g>
							<path class="st5" d="M221.12,165.005c1.381,0,2.5-1.119,2.5-2.5s-1.119-2.5-2.5-2.5h-20.194c-1.381,0-2.5,1.119-2.5,2.5
								s1.119,2.5,2.5,2.5H221.12z M199.926,162.505c0-0.552,0.449-1,1-1h20.194c0.551,0,1,0.448,1,1s-0.449,1-1,1h-20.194
								C200.374,163.505,199.926,163.057,199.926,162.505z"/>
						</g>
					</g>
				</g>
				<g>
					<g>
						<g>
							<path class="st5" d="M55.074,95.995c1.381,0,2.5-1.119,2.5-2.5s-1.119-2.5-2.5-2.5H34.88c-1.381,0-2.5,1.119-2.5,2.5
								s1.119,2.5,2.5,2.5H55.074z M33.88,93.495c0-0.552,0.449-1,1-1h20.194c0.551,0,1,0.448,1,1s-0.449,1-1,1H34.88
								C34.328,94.495,33.88,94.046,33.88,93.495z"/>
						</g>
					</g>
				</g>
				<g>
					<g>
						<g>
							<path class="st5" d="M55.074,130.5c1.381,0,2.5-1.119,2.5-2.5s-1.119-2.5-2.5-2.5H34.88c-1.381,0-2.5,1.119-2.5,2.5
								s1.119,2.5,2.5,2.5H55.074z M33.88,128c0-0.552,0.449-1,1-1h20.194c0.551,0,1,0.448,1,1s-0.449,1-1,1H34.88
								C34.328,129,33.88,128.552,33.88,128z"/>
						</g>
					</g>
				</g>
				<g>
					<g>
						<g>
							<path class="st5" d="M55.074,165.005c1.381,0,2.5-1.119,2.5-2.5s-1.119-2.5-2.5-2.5H34.88c-1.381,0-2.5,1.119-2.5,2.5
								s1.119,2.5,2.5,2.5H55.074z M33.88,162.505c0-0.552,0.449-1,1-1h20.194c0.551,0,1,0.448,1,1s-0.449,1-1,1H34.88
								C34.328,163.505,33.88,163.057,33.88,162.505z"/>
						</g>
					</g>
				</g>
			</g>
			<g>
				<g>
					<g>
						<path class="st6" d="M200.926,189.479c1.381,0,2.5-1.119,2.5-2.5V69.021c0-1.381-1.119-2.5-2.5-2.5H55.074
							c-1.381,0-2.5,1.119-2.5,2.5v117.958c0,1.381,1.119,2.5,2.5,2.5H200.926z M57.574,71.521h140.852v112.958H57.574V71.521z"/>
					</g>
				</g>
			</g>
			<g>
				<g>
					<g>
						<g>
							<path class="st7" d="M200.926,189.479c1.381,0,2.5-1.119,2.5-2.5V69.021c0-1.381-1.119-2.5-2.5-2.5H55.074
								c-1.381,0-2.5,1.119-2.5,2.5v117.958c0,1.381,1.119,2.5,2.5,2.5H200.926z M54.074,186.979V69.021c0-0.552,0.449-1,1-1
								h145.852c0.551,0,1,0.448,1,1v117.958c0,0.552-0.449,1-1,1H55.074C54.523,187.979,54.074,187.531,54.074,186.979z"/>
							<path class="st7" d="M57.574,185.979h140.852c0.828,0,1.5-0.672,1.5-1.5V71.521c0-0.828-0.672-1.5-1.5-1.5H57.574
								c-0.828,0-1.5,0.672-1.5,1.5v112.958C56.074,185.307,56.746,185.979,57.574,185.979z M57.574,71.521h140.852v112.958H57.574
								V71.521z"/>
						</g>
					</g>
				</g>
			</g>
		</g>
	</g>
</g>
</svg>
